{"title":"Star Wars Episode VIII - The Last Jedi 2017 HDTC.XVID -VVEXO","magnet":"magnet:?xt=urn:btih:0830fec18eeef8bd970521614b4daed2ab40706b&dn=Star+Wars+Episode+VIII+-+The+Last+Jedi+2017+HDTC.XVID+-VVEXO&tr=udp%3A%2F%2Ftracker.leechers-paradise.org%3A6969&tr=udp%3A%2F%2Fzer0day.ch%3A1337&tr=udp%3A%2F%2Fopen.demonii.com%3A1337&tr=udp%3A%2F%2Ftracker.coppersurfer.tk%3A6969&tr=udp%3A%2F%2Fexodus.desync.com%3A6969","uploader":"vvesko","categoryP":"video","categoryS":"movies","size":"1123782779","seeders":"6","leechers":"7","description":"NOTE: NO BLACK BARS, NO ADVERTISES.\r\n\r\nChinese subtitles sometimes on the screen.\r\n\r\nGeneral\r\nComplete name               : Star Wars The Last Jedi 2017 720p HDTC XVID - VVEXO_HDTV.avi\r\nFormat                      : AVI\r\nFormat/Info                 : Audio Video Interleave\r\nFile size                   : 1.05 GiB\r\nDuration                    : 2 h 27 min\r\nOverall bit rate            : 1 013 kb/s\r\nWriting application         : MEncoder SVN-r22963\r\nWriting library             : MPlayer\r\n\r\nVideo\r\nID                          : 0\r\nFormat                      : MPEG-4 Visual\r\nFormat profile              : <a href=\"/cdn-cgi/l/email-protection\" class=\"__cf_email__\" data-cfemail=\"085b616578646d484439\">[email&#xA0;protected]</a>\r\nFormat settings, BVOP       : No\r\nFormat settings, QPel       : No\r\nFormat settings, GMC        : No warppoints\r\nFormat settings, Matrix     : Default (H.263)\r\nCodec ID                    : XVID\r\nCodec ID/Hint               : XviD\r\nDuration                    : 2 h 27 min\r\nBit rate                    : 921 kb/s\r\nWidth                       : 720 pixels\r\nHeight                      : 480 pixels\r\nDisplay aspect ratio        : 3:2\r\nFrame rate                  : 23.976 (24000/1001) FPS\r\nColor space                 : YUV\r\nChroma subsampling          : 4:2:0\r\nBit depth                   : 8 bits\r\nScan type                   : Progressive\r\nCompression mode            : Lossy\r\nBits/(Pixel*Frame)          : 0.111\r\nStream size                 : 974 MiB (91%)\r\nWriting library             : Lavc51.40.2\r\n\r\nAudio\r\nID                          : 1\r\nFormat                      : MPEG Audio\r\nFormat version              : Version 1\r\nFormat profile              : Layer 3\r\nCodec ID                    : 55\r\nCodec ID/Hint               : MP3\r\nDuration                    : 2 h 27 min\r\nBit rate mode               : Constant\r\nBit rate                    : 80.0 kb/s\r\nChannel(s)                  : 2 channels\r\nSampling rate               : 44.1 kHz\r\nCompression mode            : Lossy\r\nStream size                 : 84.6 MiB (8%)\r\nAlignment                   : Aligned on interleaves\r\nInterleave, duration        : 26  ms (0.63 video frame)\r\nInterleave, preload duratio : 522  ms\r\n\r\n\r\n\r\n <a href=\"\nhttps://i.imgur.com/jlndxtP.png\" rel=\"nofollow\" target=\"_NEW\">\nhttps://i.imgur.com/jlndxtP.png</a>  <a href=\"\nhttps://i.imgur.com/5JgNCPf.png\" rel=\"nofollow\" target=\"_NEW\">\nhttps://i.imgur.com/5JgNCPf.png</a>  <a href=\"\nhttps://i.imgur.com/Y2kPAqD.png\" rel=\"nofollow\" target=\"_NEW\">\nhttps://i.imgur.com/Y2kPAqD.png</a> <a href=\"\nhttps://i.imgur.com/5hzxcTz.jpg\" rel=\"nofollow\" target=\"_NEW\">\nhttps://i.imgur.com/5hzxcTz.jpg</a> <a href=\"\nhttps://i.imgur.com/YBesis2.jpg\" rel=\"nofollow\" target=\"_NEW\">\nhttps://i.imgur.com/YBesis2.jpg</a> <a href=\"\nhttps://i.imgur.com/QjJLfXs.jpg\" rel=\"nofollow\" target=\"_NEW\">\nhttps://i.imgur.com/QjJLfXs.jpg</a>","last_updated":"2018-01-30T12:09:14.754Z","parsed":{"xt":"urn:btih:0830fec18eeef8bd970521614b4daed2ab40706b","dn":"Star Wars Episode VIII - The Last Jedi 2017 HDTC.XVID -VVEXO","tr":["udp://exodus.desync.com:6969","udp://open.demonii.com:1337","udp://tracker.coppersurfer.tk:6969","udp://tracker.leechers-paradise.org:6969","udp://zer0day.ch:1337"],"infoHash":"0830fec18eeef8bd970521614b4daed2ab40706b","infoHashBuffer":{"type":"Buffer","data":[8,48,254,193,142,238,248,189,151,5,33,97,75,77,174,210,171,64,112,107]},"name":"Star Wars Episode VIII - The Last Jedi 2017 HDTC.XVID -VVEXO","announce":["udp://exodus.desync.com:6969","udp://open.demonii.com:1337","udp://tracker.coppersurfer.tk:6969","udp://tracker.leechers-paradise.org:6969","udp://zer0day.ch:1337"],"urlList":[]}}